<?xml version="1.0" standalone="no"?><!DOCTYPE svg PUBLIC "-//W3C//DTD SVG 1.1//EN" "http://www.w3.org/Graphics/SVG/1.1/DTD/svg11.dtd"><svg t="1495530344521" class="icon" style="" viewBox="0 0 1024 1024" version="1.1" xmlns="http://www.w3.org/2000/svg" p-id="3264" xmlns:xlink="http://www.w3.org/1999/xlink" width="200" height="200"><defs><style type="text/css"></style></defs><path d="M819.2 143.36 225.28 143.36c-38.912 0-71.68 32.768-71.68 71.68l0 593.92c0 38.912 32.768 71.68 71.68 71.68l593.92 0c38.912 0 71.68-32.768 71.68-71.68L890.88 215.04C890.88 176.128 858.112 143.36 819.2 143.36zM618.496 359.424l-45.056 0c-37.888 0-31.744 31.744-31.744 31.744l0 37.888 76.8 0-15.36 92.16-61.44 0L541.696 768 435.2 768 435.2 522.24 389.12 522.24l1.024-92.16 46.08 0c0 0 0-23.552 0-49.152 0-117.76 111.616-105.472 111.616-105.472l71.68 0L618.496 359.424z" p-id="3265"></path></svg>